<svg xmlns="http://www.w3.org/2000/svg" width="656" height="242" viewBox="0 0 656 242" version="1.1"><path d="M 17.334 53.250 C 17.832 55.286, 33.355 134.721, 42.640 182.750 L 46.361 202 63.642 202 L 80.923 202 81.898 198.250 C 82.435 196.188, 87.006 178.075, 92.056 158 C 97.107 137.925, 101.410 121.313, 101.620 121.083 C 101.829 120.854, 102.190 120.857, 102.422 121.089 C 102.654 121.321, 107.453 139.621, 113.087 161.755 L 123.329 202 140.556 202 L 157.782 202 159.327 193.750 C 161.263 183.413, 185.766 57.488, 186.568 53.750 L 187.159 51 170.186 51 C 157.517 51, 153.099 51.317, 152.760 52.250 C 152.511 52.938, 149.222 69.369, 145.451 88.764 C 141.681 108.160, 138.297 123.460, 137.932 122.764 C 137.567 122.069, 133.270 105.631, 128.384 86.235 L 119.500 50.970 102.109 51.235 L 84.719 51.500 75.530 87.246 C 70.476 106.907, 66.136 123.197, 65.886 123.448 C 65.636 123.698, 63.742 114.812, 61.678 103.701 C 59.614 92.591, 56.515 76.188, 54.791 67.250 L 51.656 51 34.220 51 L 16.783 51 17.334 53.250 M 218 126.500 L 218 202 235 202 L 252 202 252 126.500 L 252 51 235 51 L 218 51 218 126.500 M 284 126.500 L 284 202 328.500 202 L 373 202 373 184.500 L 373 167 345.500 167 L 318 167 318 109 L 318 51 301 51 L 284 51 284 126.500 M 405 126.500 L 405 202 449.500 202 L 494 202 494 184.500 L 494 167 466.500 167 L 439 167 439 109 L 439 51 422 51 L 405 51 405 126.500 M 526.423 52.750 C 526.729 53.712, 536.210 74.924, 547.490 99.886 L 568 145.272 568 173.636 L 568 202 585 202 L 602 202 602 173.079 L 602 144.158 621.128 101.829 C 631.648 78.548, 641.082 57.587, 642.092 55.250 L 643.929 51 626.714 51.024 L 609.500 51.049 597.105 78.566 L 584.710 106.083 574.508 83.292 C 568.896 70.756, 563.362 58.362, 562.209 55.750 L 560.112 51 542.989 51 C 527.135 51, 525.907 51.130, 526.423 52.750" stroke="none" fill="#0555bc" fill-rule="evenodd"/><path d="M 0 121.002 L 0 242.003 328.250 241.752 L 656.500 241.500 656.754 120.750 L 657.008 -0 328.504 -0 L 0 0 0 121.002 M 0.484 121.500 C 0.484 188.050, 0.604 215.422, 0.750 182.327 C 0.896 149.232, 0.896 94.782, 0.750 61.327 C 0.604 27.872, 0.484 54.950, 0.484 121.500 M 17.334 53.250 C 17.832 55.286, 33.355 134.721, 42.640 182.750 L 46.361 202 63.642 202 L 80.923 202 81.898 198.250 C 82.435 196.188, 87.006 178.075, 92.056 158 C 97.107 137.925, 101.410 121.313, 101.620 121.083 C 101.829 120.854, 102.190 120.857, 102.422 121.089 C 102.654 121.321, 107.453 139.621, 113.087 161.755 L 123.329 202 140.556 202 L 157.782 202 159.327 193.750 C 161.263 183.413, 185.766 57.488, 186.568 53.750 L 187.159 51 170.186 51 C 157.517 51, 153.099 51.317, 152.760 52.250 C 152.511 52.938, 149.222 69.369, 145.451 88.764 C 141.681 108.160, 138.297 123.460, 137.932 122.764 C 137.567 122.069, 133.270 105.631, 128.384 86.235 L 119.500 50.970 102.109 51.235 L 84.719 51.500 75.530 87.246 C 70.476 106.907, 66.136 123.197, 65.886 123.448 C 65.636 123.698, 63.742 114.812, 61.678 103.701 C 59.614 92.591, 56.515 76.188, 54.791 67.250 L 51.656 51 34.220 51 L 16.783 51 17.334 53.250 M 218 126.500 L 218 202 235 202 L 252 202 252 126.500 L 252 51 235 51 L 218 51 218 126.500 M 284 126.500 L 284 202 328.500 202 L 373 202 373 184.500 L 373 167 345.500 167 L 318 167 318 109 L 318 51 301 51 L 284 51 284 126.500 M 405 126.500 L 405 202 449.500 202 L 494 202 494 184.500 L 494 167 466.500 167 L 439 167 439 109 L 439 51 422 51 L 405 51 405 126.500 M 526.423 52.750 C 526.729 53.712, 536.210 74.924, 547.490 99.886 L 568 145.272 568 173.636 L 568 202 585 202 L 602 202 602 173.079 L 602 144.158 621.128 101.829 C 631.648 78.548, 641.082 57.587, 642.092 55.250 L 643.929 51 626.714 51.024 L 609.500 51.049 597.105 78.566 L 584.710 106.083 574.508 83.292 C 568.896 70.756, 563.362 58.362, 562.209 55.750 L 560.112 51 542.989 51 C 527.135 51, 525.907 51.130, 526.423 52.750" stroke="none" fill="#fbfbfb" fill-rule="evenodd"/></svg>