<svg
    width="30"
    height="40"
    viewBox="0 0 40 40"
    fill="none"
    xmlns="http://www.w3.org/2000/svg"
  >
    <circle cx="20" cy="20" r="20" fill="url(#paint0_linear_247_25806)" />
    <g filter="url(#filter0_ddi_247_25806)">
      <path
        d="M25.5398 16.8514C25.4742 16.8514 25.4185 16.8382 25.3725 16.812C25.3266 16.7858 25.2905 16.74 25.2643 16.6744L24.6936 15.3376L23.2569 14.7085C23.1913 14.6823 23.1454 14.6462 23.1192 14.6003C23.0929 14.5545 23.0798 14.4988 23.0798 14.4332C23.0798 14.3677 23.0929 14.312 23.1192 14.2661C23.1454 14.2203 23.1913 14.1842 23.2569 14.158L24.6936 13.5486L25.2643 12.2707C25.2905 12.2052 25.3266 12.1593 25.3725 12.1331C25.4185 12.1069 25.4742 12.0938 25.5398 12.0938C25.6054 12.0938 25.6612 12.1069 25.7071 12.1331C25.753 12.1593 25.7891 12.2052 25.8153 12.2707L26.386 13.5486L27.8227 14.158C27.8883 14.1842 27.9342 14.2203 27.9604 14.2661C27.9867 14.312 27.9998 14.3677 27.9998 14.4332C27.9998 14.4988 27.9867 14.5545 27.9604 14.6003C27.9342 14.6462 27.8883 14.6823 27.8227 14.7085L26.386 15.3376L25.8153 16.6744C25.7891 16.74 25.753 16.7858 25.7071 16.812C25.6612 16.8382 25.6054 16.8514 25.5398 16.8514ZM25.5398 28.5684C25.4873 28.5684 25.4349 28.5553 25.3824 28.5291C25.3299 28.5029 25.2905 28.457 25.2643 28.3915L24.6936 27.1136L23.2766 26.5042C23.211 26.478 23.1651 26.4419 23.1389 26.3961C23.1126 26.3502 23.0995 26.2945 23.0995 26.229C23.0995 26.1634 23.1126 26.1077 23.1389 26.0618C23.1651 26.016 23.211 25.9799 23.2766 25.9537L24.6936 25.3443L25.2643 23.9878C25.2905 23.9222 25.3266 23.8764 25.3725 23.8501C25.4185 23.8239 25.4742 23.8108 25.5398 23.8108C25.6054 23.8108 25.6612 23.8239 25.7071 23.8501C25.753 23.8764 25.7891 23.9222 25.8153 23.9878L26.386 25.3443L27.803 25.9537C27.8686 25.9799 27.9145 26.016 27.9408 26.0618C27.967 26.1077 27.9801 26.1634 27.9801 26.229C27.9801 26.2945 27.967 26.3502 27.9408 26.3961C27.9145 26.4419 27.8686 26.478 27.803 26.5042L26.386 27.1136L25.8153 28.3915C25.7891 28.457 25.7497 28.5029 25.6973 28.5291C25.6448 28.5553 25.5923 28.5684 25.5398 28.5684ZM16.9003 25.1673C16.7953 25.1673 16.6937 25.1378 16.5953 25.0789C16.4969 25.0199 16.4214 24.938 16.369 24.8331L15.0898 22.1004L12.3346 20.8619C12.2296 20.8095 12.1476 20.7341 12.0886 20.6358C12.0295 20.5375 12 20.4359 12 20.3311C12 20.2262 12.0295 20.1247 12.0886 20.0264C12.1476 19.9281 12.2296 19.8527 12.3346 19.8003L15.0898 18.5617L16.369 15.8487C16.4214 15.7308 16.4969 15.6423 16.5953 15.5833C16.6937 15.5243 16.7953 15.4948 16.9003 15.4948C17.0053 15.4948 17.1069 15.5243 17.2053 15.5833C17.3037 15.6423 17.3792 15.7242 17.4317 15.8291L18.7305 18.5617L21.4661 19.8003C21.5841 19.8527 21.6727 19.9281 21.7317 20.0264C21.7908 20.1247 21.8203 20.2262 21.8203 20.3311C21.8203 20.4359 21.7908 20.5375 21.7317 20.6358C21.6727 20.7341 21.5841 20.8095 21.4661 20.8619L18.7305 22.1004L17.4317 24.8331C17.3792 24.9511 17.3037 25.0363 17.2053 25.0887C17.1069 25.1411 17.0053 25.1673 16.9003 25.1673Z"
        fill="url(#paint1_linear_247_25806)"
        shape-rendering="crispEdges"
      />
    </g>
    <defs>
      <filter
        id="filter0_ddi_247_25806"
        x="5.63323"
        y="6.53198"
        width="28.0017"
        height="29.5741"
        filterUnits="userSpaceOnUse"
        color-interpolation-filters="sRGB"
      >
        <feFlood flood-opacity="0" result="BackgroundImageFix" />
        <feColorMatrix
          in="SourceAlpha"
          type="matrix"
          values="0 0 0 0 0 0 0 0 0 0 0 0 0 0 0 0 0 0 127 0"
          result="hardAlpha"
        />
        <feOffset dx="-1.31726" dy="2.48816" />
        <feGaussianBlur stdDeviation="2.52475" />
        <feComposite in2="hardAlpha" operator="out" />
        <feColorMatrix
          type="matrix"
          values="0 0 0 0 0.0506089 0 0 0 0 0.0159861 0 0 0 0 0.191833 0 0 0 0.25 0"
        />
        <feBlend
          mode="normal"
          in2="BackgroundImageFix"
          result="effect1_dropShadow_247_25806"
        />
        <feColorMatrix
          in="SourceAlpha"
          type="matrix"
          values="0 0 0 0 0 0 0 0 0 0 0 0 0 0 0 0 0 0 127 0"
          result="hardAlpha"
        />
        <feOffset dx="1.24408" dy="-1.1709" />
        <feGaussianBlur stdDeviation="2.19544" />
        <feComposite in2="hardAlpha" operator="out" />
        <feColorMatrix
          type="matrix"
          values="0 0 0 0 1 0 0 0 0 1 0 0 0 0 1 0 0 0 0.35 0"
        />
        <feBlend
          mode="normal"
          in2="effect1_dropShadow_247_25806"
          result="effect2_dropShadow_247_25806"
        />
        <feBlend
          mode="normal"
          in="SourceGraphic"
          in2="effect2_dropShadow_247_25806"
          result="shape"
        />
        <feColorMatrix
          in="SourceAlpha"
          type="matrix"
          values="0 0 0 0 0 0 0 0 0 0 0 0 0 0 0 0 0 0 127 0"
          result="hardAlpha"
        />
        <feOffset dy="3.07361" />
        <feGaussianBlur stdDeviation="1.9393" />
        <feComposite in2="hardAlpha" operator="arithmetic" k2="-1" k3="1" />
        <feColorMatrix
          type="matrix"
          values="0 0 0 0 1 0 0 0 0 1 0 0 0 0 1 0 0 0 1 0"
        />
        <feBlend
          mode="normal"
          in2="shape"
          result="effect3_innerShadow_247_25806"
        />
      </filter>
      <linearGradient
        id="paint0_linear_247_25806"
        x1="23.8824"
        y1="33.1765"
        x2="32.3889"
        y2="2.42592"
        gradientUnits="userSpaceOnUse"
      >
        <stop stop-color="#4A25E1" />
        <stop offset="0.927091" stop-color="#7B5AFF" />
      </linearGradient>
      <linearGradient
        id="paint1_linear_247_25806"
        x1="22.7967"
        y1="19.8484"
        x2="20.3181"
        y2="31.371"
        gradientUnits="userSpaceOnUse"
      >
        <stop stop-color="white" stop-opacity="0.96" />
        <stop offset="1" stop-color="white" stop-opacity="0.23" />
      </linearGradient>
    </defs>
  </svg>