<svg
    width="115"
    height="50"
    viewBox="0 0 115 70"
    fill="none"
    xmlns="http://www.w3.org/2000/svg"
  >
    <g filter="url(#filter0_d_247_23884)">
      <rect x="15" width="85" height="40" rx="10" fill="#5244F3" />
      <path
        d="M68.1471 14.5592C68.6335 13.1883 67.3117 11.8665 65.9408 12.3529L51.9001 17.3351C50.3698 17.8781 50.3656 20.0408 51.8938 20.5897L55.7578 21.7563C56.2576 21.9072 56.7992 21.8152 57.2211 21.5077L61.5299 18.3677C61.6988 18.218 61.9551 18.2256 62.1147 18.3853C62.2744 18.5449 62.2821 18.8012 62.1323 18.9701L58.9923 23.2789C58.6848 23.7008 58.5928 24.2424 58.7437 24.7422L59.9103 28.6062C60.4592 30.1344 62.6219 30.1302 63.1649 28.5999L68.1471 14.5592Z"
        fill="white"
      />
    </g>
    <defs>
      <filter
        id="filter0_d_247_23884"
        x="0"
        y="0"
        width="100"
        height="70"
        filterUnits="userSpaceOnUse"
        color-interpolation-filters="sRGB"
      >
        <feFlood flood-opacity="0" result="BackgroundImageFix" />
        <feColorMatrix
          in="SourceAlpha"
          type="matrix"
          values="0 0 0 0 0 0 0 0 0 0 0 0 0 0 0 0 0 0 127 0"
          result="hardAlpha"
        />
        <feMorphology
          radius="10"
          operator="erode"
          in="SourceAlpha"
          result="effect1_dropShadow_247_23884"
        />
        <feOffset dy="21" />
        <feGaussianBlur stdDeviation="13.5" />
        <feComposite in2="hardAlpha" operator="out" />
        <feColorMatrix
          type="matrix"
          values="0 0 0 0 0.376471 0 0 0 0 0.235294 0 0 0 0 1 0 0 0 0.48 0"
        />
        <feBlend
          mode="normal"
          in2="BackgroundImageFix"
          result="effect1_dropShadow_247_23884"
        />
        <feBlend
          mode="normal"
          in="SourceGraphic"
          in2="effect1_dropShadow_247_23884"
          result="shape"
        />
      </filter>
    </defs>
  </svg>