<svg width="24" height="24" viewBox="0 0 24 24" fill="none" xmlns="http://www.w3.org/2000/svg">
<path d="M1.375 12.2441C1.375 12.3802 1.40007 12.5091 1.4502 12.6309C1.50033 12.7454 1.57552 12.8529 1.67578 12.9531L10.1943 21.2783C10.3877 21.4717 10.6204 21.5684 10.8926 21.5684C11.0788 21.5684 11.2435 21.5254 11.3867 21.4395C11.5371 21.3535 11.6553 21.2354 11.7412 21.085C11.8343 20.9417 11.8809 20.777 11.8809 20.5908C11.8809 20.3258 11.7842 20.0931 11.5908 19.8926L3.77051 12.2441L11.5908 4.5957C11.7842 4.39518 11.8809 4.16243 11.8809 3.89746C11.8809 3.71126 11.8343 3.54655 11.7412 3.40332C11.6553 3.25293 11.5371 3.13477 11.3867 3.04883C11.2435 2.96289 11.0788 2.91992 10.8926 2.91992C10.6204 2.91992 10.3877 3.01302 10.1943 3.19922L1.67578 11.5352C1.57552 11.6354 1.50033 11.7464 1.4502 11.8682C1.40007 11.9827 1.375 12.1081 1.375 12.2441Z" fill="black"/>
</svg>
