<svg width="16" height="16" viewBox="0 0 16 16" fill="none" xmlns="http://www.w3.org/2000/svg">
<path d="M5.95833 1.73047C6.44158 1.73047 6.83333 2.12222 6.83333 2.60547L9.16667 2.60547C9.16667 2.12222 9.55842 1.73047 10.0417 1.73047C10.5249 1.73047 10.9167 2.12222 10.9167 2.60547H12.8125C13.779 2.60547 14.5625 3.38897 14.5625 4.35547V6.10547H1.4375V4.35547C1.4375 3.38897 2.221 2.60547 3.1875 2.60547L5.08333 2.60547C5.08333 2.12222 5.47508 1.73047 5.95833 1.73047ZM1.4375 7.1263H14.5625V12.3763C14.5625 13.3428 13.779 14.1263 12.8125 14.1263H3.1875C2.221 14.1263 1.4375 13.3428 1.4375 12.3763V7.1263ZM4.9375 11.6471C4.9375 12.1304 5.32925 12.5221 5.8125 12.5221H10.1875C10.6707 12.5221 11.0625 12.1304 11.0625 11.6471C11.0625 11.1639 10.6707 10.7721 10.1875 10.7721H5.8125C5.32925 10.7721 4.9375 11.1639 4.9375 11.6471Z" fill="#9896A3"/>
</svg>
