<svg width="22" height="22" viewBox="0 0 22 22" fill="none" xmlns="http://www.w3.org/2000/svg">
<path d="M11 3.09375C16.3158 3.09375 20.625 6.63334 20.625 11C20.625 15.3667 16.3158 18.9062 11 18.9062C10.4981 18.9062 10.0052 18.8746 9.52394 18.8138L6.18097 20.3077C6.06825 20.3581 5.94405 20.3771 5.82142 20.3629C5.69878 20.3487 5.58223 20.3018 5.48402 20.227C5.3858 20.1522 5.30954 20.0523 5.26323 19.9379C5.21693 19.8234 5.2023 19.6986 5.22087 19.5766L5.2305 19.526L5.67634 17.588C3.08378 16.1714 1.375 13.7497 1.375 11C1.375 6.63334 5.68425 3.09375 11 3.09375ZM10.3125 11.3437H6.53125C6.35285 11.343 6.18112 11.4115 6.05235 11.535C5.92358 11.6585 5.84785 11.8272 5.84116 12.0054C5.83446 12.1837 5.89733 12.3576 6.01648 12.4904C6.13563 12.6232 6.30173 12.7044 6.47969 12.717L6.53125 12.7187H10.3125C10.4909 12.7195 10.6626 12.651 10.7914 12.5275C10.9202 12.404 10.9959 12.2353 11.0026 12.0571C11.0093 11.8788 10.9464 11.7049 10.8273 11.5721C10.7081 11.4393 10.542 11.3581 10.3641 11.3455L10.3125 11.3437ZM12.0312 7.90625H6.53125C6.35285 7.90545 6.18112 7.97403 6.05235 8.09751C5.92358 8.22098 5.84785 8.38967 5.84116 8.56795C5.83446 8.74622 5.89733 8.92012 6.01648 9.0529C6.13563 9.18568 6.30173 9.26695 6.47969 9.27953L6.53125 9.28125H12.0312C12.2097 9.28205 12.3814 9.21347 12.5101 9.08999C12.6389 8.96652 12.7146 8.79783 12.7213 8.61955C12.728 8.44128 12.6652 8.26738 12.546 8.1346C12.4269 8.00182 12.2608 7.92055 12.0828 7.90797L12.0312 7.90625Z" fill="currentColor"/>
</svg>
