<svg width="16" height="16" viewBox="0 0 16 16" fill="none" xmlns="http://www.w3.org/2000/svg">
<g clip-path="url(#clip0_779_11854)">
<path fill-rule="evenodd" clip-rule="evenodd" d="M8.3347 1.5C7.78241 1.5 7.3347 1.94772 7.3347 2.5V13.1667C7.3347 13.719 7.78241 14.1667 8.3347 14.1667H15.0014C15.5536 14.1667 16.0014 13.719 16.0014 13.1667V2.5C16.0014 1.94772 15.5536 1.5 15.0014 1.5H8.3347ZM9.3347 5.5C8.78241 5.5 8.3347 5.05228 8.3347 4.5C8.3347 3.94772 8.78241 3.5 9.3347 3.5H10.3347C10.887 3.5 11.3347 3.94772 11.3347 4.5C11.3347 5.05228 10.887 5.5 10.3347 5.5H9.3347ZM8.3347 7.5C8.3347 6.94772 8.78241 6.5 9.3347 6.5H11.3347C11.887 6.5 12.3347 6.94772 12.3347 7.5C12.3347 8.05229 11.887 8.5 11.3347 8.5H9.3347C8.78241 8.5 8.3347 8.05229 8.3347 7.5ZM4.61708 1.72124C3.81688 1.50682 2.99438 1.9817 2.77996 2.7819L0.278046 12.1192C0.0636333 12.9194 0.538507 13.7419 1.33871 13.9563L2.30463 14.2151C3.10483 14.4295 3.92734 13.9547 4.14175 13.1545L6.64367 3.81717C6.85808 3.01697 6.38321 2.19447 5.58301 1.98006L4.61708 1.72124Z" fill="white"/>
</g>
<defs>
<clipPath id="clip0_779_11854">
<rect width="16" height="16" fill="white"/>
</clipPath>
</defs>
</svg>
