<svg width="22" height="22" viewBox="0 0 22 22" fill="none" xmlns="http://www.w3.org/2000/svg">
<path d="M17.2401 8.26795C16.8262 8.26795 16.278 8.25878 15.5955 8.25878C13.9308 8.25878 12.5621 6.88103 12.5621 5.20078V2.25278C12.5621 2.02086 12.377 1.83203 12.1473 1.83203H7.29869C5.03593 1.83203 3.20703 3.6892 3.20703 5.96528V15.8424C3.20703 18.2303 5.12307 20.1654 7.48748 20.1654H14.7078C16.9624 20.1654 18.7904 18.3201 18.7904 16.0422V8.68045C18.7904 8.44761 18.6061 8.2597 18.3756 8.26061C17.988 8.26336 17.5233 8.26795 17.2401 8.26795Z" fill="currentColor"/>
<path opacity="0.4" d="M14.7409 2.35391C14.4668 2.06883 13.9883 2.26499 13.9883 2.66008V5.07733C13.9883 6.09116 14.8234 6.92533 15.8372 6.92533C16.4761 6.93266 17.3634 6.93449 18.1169 6.93266C18.5029 6.93174 18.699 6.47066 18.4314 6.19199C17.4643 5.18641 15.7327 3.38424 14.7409 2.35391Z" fill="currentColor"/>
<path d="M13.2154 13.6522C13.5921 13.6522 13.8983 13.9584 13.8983 14.3352C13.8983 14.7119 13.5921 15.0172 13.2154 15.0172H8.22506C7.84831 15.0172 7.54306 14.7119 7.54306 14.3352C7.54306 13.9584 7.84831 13.6522 8.22506 13.6522H13.2154ZM11.3279 9.07422C11.7046 9.07422 12.0108 9.38039 12.0108 9.75714C12.0108 10.1339 11.7046 10.4391 11.3279 10.4391H8.22497C7.84822 10.4391 7.54297 10.1339 7.54297 9.75714C7.54297 9.38039 7.84822 9.07422 8.22497 9.07422H11.3279Z" fill="white"/>
</svg>
