<svg
    width="60"
    height="46"
    viewBox="0 0 60 46"
    fill="none"
    xmlns="http://www.w3.org/2000/svg"
  >
    <g filter="url(#filter0_d_454_9164)">
      <rect x="8" y="4" width="44" height="30" rx="15" fill="white" />
      <rect x="8.5" y="4.5" width="43" height="29" rx="14.5" stroke="#DEE0E3" />
      <path
        d="M40.3125 19.6875C40.4948 19.5052 40.5973 19.2579 40.5973 19C40.5973 18.7421 40.4948 18.4948 40.3125 18.3125L36.875 14.875C36.6927 14.6927 36.4454 14.5903 36.1875 14.5903C35.9297 14.5904 35.6824 14.6928 35.5001 14.8751C35.3178 15.0574 35.2154 15.3047 35.2153 15.5625C35.2153 15.8204 35.3177 16.0677 35.5 16.25L37.2669 18.0169L32.75 18.0237C32.6216 18.0232 32.4945 18.0481 32.3758 18.097C32.2571 18.1459 32.1493 18.2178 32.0585 18.3085C31.9678 18.3993 31.8959 18.5071 31.847 18.6258C31.7981 18.7445 31.7732 18.8716 31.7737 19C31.7732 19.1284 31.7981 19.2555 31.847 19.3742C31.8959 19.4929 31.9678 19.6007 32.0585 19.6915C32.1493 19.7822 32.2571 19.8541 32.3758 19.903C32.4945 19.9519 32.6216 19.9768 32.75 19.9763L37.2738 19.9763L35.5 21.75C35.3177 21.9323 35.2152 22.1796 35.2152 22.4375C35.2152 22.6954 35.3177 22.9427 35.5 23.125C35.6823 23.3073 35.9296 23.4098 36.1875 23.4098C36.4454 23.4098 36.6927 23.3073 36.875 23.125L40.3125 19.6875ZM28.2263 19C28.2268 18.8716 28.2019 18.7445 28.153 18.6258C28.1041 18.5071 28.0322 18.3993 27.9415 18.3085C27.8507 18.2178 27.7429 18.1459 27.6242 18.097C27.5055 18.0481 27.3784 18.0232 27.25 18.0237L22.7331 18.0169L24.5 16.25C24.6823 16.0677 24.7848 15.8204 24.7848 15.5625C24.7848 15.3046 24.6823 15.0573 24.5 14.875C24.3177 14.6927 24.0704 14.5902 23.8125 14.5902C23.5546 14.5902 23.3073 14.6927 23.125 14.875L19.6875 18.3125C19.5052 18.4948 19.4027 18.7421 19.4027 19C19.4027 19.2579 19.5052 19.5052 19.6875 19.6875L23.125 23.125C23.3073 23.3073 23.5546 23.4097 23.8125 23.4097C24.0703 23.4096 24.3176 23.3072 24.4999 23.1249C24.6822 22.9426 24.7846 22.6953 24.7847 22.4375C24.7847 22.1796 24.6823 21.9323 24.5 21.75L22.7262 19.9763L27.25 19.9763C27.3784 19.9768 27.5055 19.9519 27.6242 19.903C27.7429 19.8541 27.8507 19.7822 27.9415 19.6915C28.0322 19.6007 28.1041 19.4929 28.153 19.3742C28.2019 19.2555 28.2268 19.1284 28.2263 19Z"
        fill="#5244F3"
      />
    </g>
    <defs>
      <filter
        id="filter0_d_454_9164"
        x="0"
        y="0"
        width="60"
        height="46"
        filterUnits="userSpaceOnUse"
        color-interpolation-filters="sRGB"
      >
        <feFlood flood-opacity="0" result="BackgroundImageFix" />
        <feColorMatrix
          in="SourceAlpha"
          type="matrix"
          values="0 0 0 0 0 0 0 0 0 0 0 0 0 0 0 0 0 0 127 0"
          result="hardAlpha"
        />
        <feOffset dy="4" />
        <feGaussianBlur stdDeviation="4" />
        <feColorMatrix
          type="matrix"
          values="0 0 0 0 0.121569 0 0 0 0 0.137255 0 0 0 0 0.160784 0 0 0 0.1 0"
        />
        <feBlend
          mode="normal"
          in2="BackgroundImageFix"
          result="effect1_dropShadow_454_9164"
        />
        <feBlend
          mode="normal"
          in="SourceGraphic"
          in2="effect1_dropShadow_454_9164"
          result="shape"
        />
      </filter>
    </defs>
  </svg>