<svg width="120" height="120" viewBox="0 0 120 120" fill="none" xmlns="http://www.w3.org/2000/svg">
<g clip-path="url(#clip0_779_11886)">
<path opacity="0.8" d="M60 120C93.1371 120 120 93.1371 120 60C120 26.8629 93.1371 0 60 0C26.8629 0 0 26.8629 0 60C0 93.1371 26.8629 120 60 120Z" fill="url(#paint0_linear_779_11886)"/>
<path d="M108.633 18.168H100.807C100.292 18.168 99.875 18.5851 99.875 19.0996V19.6587C99.875 20.1732 100.292 20.5903 100.807 20.5903H108.633C109.147 20.5903 109.564 20.1732 109.564 19.6587V19.0996C109.564 18.5851 109.147 18.168 108.633 18.168Z" fill="url(#paint1_linear_779_11886)"/>
<path d="M105.932 23.2929V15.4668C105.932 14.9523 105.515 14.5352 105 14.5352H104.441C103.926 14.5352 103.509 14.9523 103.509 15.4668V23.2929C103.509 23.8075 103.926 24.2246 104.441 24.2246H105C105.515 24.2246 105.932 23.8075 105.932 23.2929Z" fill="url(#paint2_linear_779_11886)"/>
<path d="M7.82594 92.0503C7.01516 92.0503 6.22259 91.8099 5.54845 91.3595C4.87431 90.909 4.34888 90.2688 4.03861 89.5197C3.72834 88.7706 3.64716 87.9464 3.80533 87.1512C3.96351 86.356 4.35394 85.6256 4.92724 85.0522C5.50055 84.4789 6.23099 84.0885 7.02619 83.9303C7.8214 83.7722 8.64564 83.8533 9.39471 84.1636C10.1438 84.4739 10.784 84.9993 11.2345 85.6735C11.6849 86.3476 11.9253 87.1402 11.9253 87.9509C11.9253 89.0382 11.4934 90.0809 10.7246 90.8496C9.95586 91.6184 8.91317 92.0503 7.82594 92.0503ZM7.82594 85.6068C7.36232 85.6068 6.90912 85.7443 6.52363 86.0019C6.13815 86.2595 5.8377 86.6256 5.66028 87.0539C5.48286 87.4822 5.43644 87.9535 5.52688 88.4083C5.61733 88.863 5.84059 89.2806 6.16841 89.6085C6.49624 89.9363 6.91392 90.1596 7.36863 90.25C7.82334 90.3404 8.29466 90.294 8.72299 90.1166C9.15132 89.9392 9.51742 89.6387 9.77499 89.2533C10.0326 88.8678 10.17 88.4146 10.17 87.9509C10.17 87.3292 9.92308 86.733 9.48347 86.2934C9.04387 85.8538 8.44764 85.6068 7.82594 85.6068Z" fill="url(#paint3_linear_779_11886)"/>
<path opacity="0.6" d="M91.8557 95.6531L91.7589 75.5885C91.7479 73.4172 92.5987 71.3303 94.1246 69.7856C95.6505 68.2409 97.7268 67.3645 99.898 67.3487H99.9911C102.126 67.3778 104.17 68.221 105.704 69.706C107.238 71.1911 108.147 73.2059 108.246 75.3388L108.518 78.991L112.151 79.2518C113.652 79.3286 115.104 79.8088 116.355 80.6419C116.705 79.6841 117.03 78.7152 117.335 77.7351C115.806 76.8631 114.092 76.3627 112.334 76.2742L111.302 76.1997L111.223 75.1785C111.081 72.291 109.843 69.5662 107.763 67.5586C105.683 65.5509 102.916 64.4112 100.025 64.3711H99.8756C96.915 64.3928 94.0838 65.5879 92.0033 67.6943C89.9227 69.8008 88.7626 72.6464 88.7775 75.6071L88.8744 95.858C88.8773 96.5935 89.1708 97.298 89.6908 97.818C90.2109 98.338 90.9153 98.6315 91.6508 98.6344L105.842 98.6941C106.659 97.7301 107.445 96.7363 108.197 95.7127L91.8557 95.6531Z" fill="white"/>
<path opacity="0.6" d="M6.38692 67.9832L15.9907 81.5224C16.6838 82.4988 17.5782 83.0354 18.495 83.0354C18.6199 83.0345 18.7446 83.0233 18.8677 83.0019C19.8925 82.8342 20.6975 82.018 21.0664 80.7658L25.6056 65.4081C25.7477 65.0255 25.9461 64.6662 26.1944 64.3422L26.7087 63.7758L27.2677 63.2652C27.594 63.0155 27.9558 62.8158 28.341 62.6727L43.7136 58.1373C44.9658 57.7646 45.7782 56.9671 45.9497 55.9385C46.1211 54.9099 45.577 53.8367 44.459 53.0466L30.931 43.4391C30.4214 43.0299 29.9999 42.5218 29.6919 41.9454C29.3838 41.3689 29.1956 40.7362 29.1385 40.0851L28.8515 23.8516C28.8515 22.5248 28.2739 21.4925 27.3236 21.0267C26.3733 20.5609 25.259 20.7584 24.2229 21.5298L11.5149 31.0143C10.9925 31.3438 10.4063 31.559 9.79483 31.6457C9.18334 31.7324 8.56042 31.6887 7.96705 31.5174L7.30742 31.2826C6.82668 32.1621 6.36829 33.0565 5.92854 33.9584L7.01301 34.3311L7.08009 34.3534C8.09841 34.657 9.17043 34.7362 10.2223 34.5857C11.2742 34.4351 12.281 34.0584 13.1733 33.4814L25.8739 24.0193L26.1571 40.1969V40.2901C26.2443 41.3626 26.5518 42.4056 27.0602 43.354C27.5687 44.3024 28.2673 45.1357 29.1124 45.8019L42.577 55.3609L27.4652 59.8329L27.3832 59.859C26.7911 60.0694 26.2297 60.3576 25.7136 60.7162L25.6689 60.6714L25.2478 61.0702C25.0238 61.2562 24.811 61.4553 24.6105 61.6665C24.3997 61.8648 24.2018 62.0764 24.018 62.3L23.6267 62.7174L23.6714 62.7584C23.3097 63.2737 23.0189 63.8352 22.8068 64.428L18.3348 79.6217L8.82047 66.2056L8.77574 66.146C8.10955 65.3009 7.27624 64.6023 6.32788 64.0938C5.37952 63.5853 4.33648 63.2779 3.26394 63.1907L0.107422 63.1348C0.159596 64.1286 0.235372 65.1224 0.334751 66.1162L3.07015 66.1646C3.71672 66.2298 4.34356 66.4244 4.91337 66.7368C5.48317 67.0493 5.9843 67.4731 6.38692 67.9832Z" fill="white"/>
<path d="M39.7461 48.5469L37.6379 46.4387L48.1787 35.898C48.4582 35.6185 48.8374 35.4614 49.2327 35.4614C49.6281 35.4614 50.0073 35.6185 50.2868 35.898C50.5664 36.1776 50.7234 36.5567 50.7234 36.9521C50.7234 37.3474 50.5664 37.7266 50.2868 38.0062L39.7461 48.5469Z" fill="url(#paint4_linear_779_11886)"/>
<path d="M64.1887 37.6895C64.3864 37.3471 64.712 37.0973 65.0939 36.9949C65.4757 36.8926 65.8826 36.9462 66.225 37.1439L82.3621 46.4606L80.8714 49.0426L64.7343 39.7258C64.3919 39.5281 64.1421 39.2025 64.0398 38.8207C63.9375 38.4388 63.991 38.0319 64.1887 37.6895Z" fill="url(#paint5_linear_779_11886)"/>
<path d="M37.6406 46.3984H82.3611V73.9761C82.3611 75.5575 81.7329 77.0741 80.6147 78.1924C79.4964 79.3106 77.9798 79.9388 76.3984 79.9388H43.6034C42.0219 79.9388 40.5053 79.3106 39.3871 78.1924C38.2688 77.0741 37.6406 75.5575 37.6406 73.9761V46.3984Z" fill="url(#paint6_linear_779_11886)"/>
<path d="M59.9993 55.7422C59.8987 55.7422 59.7981 55.8465 59.7198 56.0105L57.9086 59.7968C57.8058 59.9858 57.6633 60.1502 57.4909 60.2789C57.3185 60.4076 57.1203 60.4974 56.9099 60.5422L52.9186 61.1161C52.5459 61.1683 52.449 61.444 52.7248 61.7273L55.6055 64.7086C55.7488 64.8777 55.8559 65.0745 55.92 65.2867C55.9841 65.4989 56.0039 65.722 55.9782 65.9422L55.2664 70.1161C55.1993 70.5149 55.4229 70.6863 55.7658 70.4888L59.3546 68.536C59.5594 68.4396 59.7843 68.3936 60.0105 68.4018C60.2367 68.3936 60.4616 68.4396 60.6664 68.536L64.2552 70.4888C64.5981 70.6751 64.8217 70.4888 64.7546 70.1161L64.039 65.9608C64.0133 65.7406 64.0331 65.5175 64.0972 65.3053C64.1613 65.0931 64.2684 64.8964 64.4117 64.7273L67.2925 61.7459C67.5682 61.4627 67.4788 61.1869 67.0987 61.1347L63.0887 60.5496C62.8783 60.5048 62.6801 60.415 62.5077 60.2863C62.3353 60.1577 62.1928 59.9932 62.09 59.8043L60.2788 56.018C60.2005 55.854 60.0999 55.7645 59.9993 55.7496" fill="white"/>
</g>
<defs>
<linearGradient id="paint0_linear_779_11886" x1="60" y1="120" x2="60" y2="0" gradientUnits="userSpaceOnUse">
<stop stop-color="#E9EDF3"/>
<stop offset="1" stop-color="#F6F8FA"/>
</linearGradient>
<linearGradient id="paint1_linear_779_11886" x1="104.72" y1="20.5903" x2="104.72" y2="18.168" gradientUnits="userSpaceOnUse">
<stop stop-color="#CFD4DE"/>
<stop offset="1" stop-color="#DADFE9"/>
</linearGradient>
<linearGradient id="paint2_linear_779_11886" x1="104.72" y1="24.2246" x2="104.72" y2="14.5352" gradientUnits="userSpaceOnUse">
<stop stop-color="#CFD4DE"/>
<stop offset="1" stop-color="#DADFE9"/>
</linearGradient>
<linearGradient id="paint3_linear_779_11886" x1="7.82594" y1="92.0503" x2="7.82594" y2="83.8516" gradientUnits="userSpaceOnUse">
<stop stop-color="#CFD4DE"/>
<stop offset="1" stop-color="#DADFE9"/>
</linearGradient>
<linearGradient id="paint4_linear_779_11886" x1="44.1811" y1="48.5442" x2="44.1837" y2="35.4606" gradientUnits="userSpaceOnUse">
<stop stop-color="#CFD4DE"/>
<stop offset="1" stop-color="#DADFE9"/>
</linearGradient>
<linearGradient id="paint5_linear_779_11886" x1="73.176" y1="49.0448" x2="73.1757" y2="36.9483" gradientUnits="userSpaceOnUse">
<stop stop-color="#CFD4DE"/>
<stop offset="1" stop-color="#DADFE9"/>
</linearGradient>
<linearGradient id="paint6_linear_779_11886" x1="60.0009" y1="79.9388" x2="60.0009" y2="46.3984" gradientUnits="userSpaceOnUse">
<stop stop-color="#CFD4DE"/>
<stop offset="1" stop-color="#DADFE9"/>
</linearGradient>
<clipPath id="clip0_779_11886">
<rect width="120" height="120" fill="white"/>
</clipPath>
</defs>
</svg>
