<svg width="22" height="22" viewBox="0 0 22 22" fill="none" xmlns="http://www.w3.org/2000/svg">
<path d="M8.3731 19.0374V16.2351C8.3731 15.5201 8.95702 14.939 9.67752 14.939H12.3129C12.6585 14.939 12.9913 15.0765 13.2351 15.3185C13.4798 15.5614 13.6173 15.8914 13.6173 16.2351V19.0374C13.6155 19.3353 13.7328 19.6213 13.9437 19.8321C14.1545 20.0429 14.4423 20.1621 14.7412 20.1621H16.5397C17.378 20.1645 18.1831 19.8349 18.7791 19.2455C19.0729 18.9551 19.3062 18.6094 19.4656 18.2283C19.625 17.8472 19.7073 17.4383 19.7077 17.0253V9.0402C19.7077 8.36645 19.407 7.72845 18.8873 7.2967L12.7722 2.44753C12.2555 2.03544 11.6112 1.81655 10.9503 1.8286C10.2895 1.84065 9.65362 2.08288 9.15227 2.51353L3.17743 7.2967C2.90895 7.50275 2.68999 7.76629 2.5366 8.06798C2.38322 8.36967 2.29931 8.70186 2.29102 9.0402V17.017C2.29102 18.7541 3.7091 20.1621 5.45902 20.1621H7.21535C7.83868 20.1621 8.34377 19.6635 8.34835 19.0456L8.3731 19.0374Z" fill="currentColor"/>
</svg>
