<svg
    width="24"
    height="25"
    viewBox="0 0 24 25"
    fill="none"
    xmlns="http://www.w3.org/2000/svg"
  >
    <path
      fill-rule="evenodd"
      clip-rule="evenodd"
      d="M15.2413 3.5H8.7587C7.95375 3.49999 7.28936 3.49998 6.74818 3.5442C6.18608 3.59012 5.66938 3.68868 5.18404 3.93598C4.43139 4.31947 3.81947 4.93139 3.43598 5.68404C3.18868 6.16938 3.09012 6.68608 3.0442 7.24818C2.99998 7.78936 2.99999 8.45373 3 9.25869V15.7413C2.99999 16.5463 2.99998 17.2106 3.0442 17.7518C3.09012 18.3139 3.18868 18.8306 3.43598 19.316C3.81947 20.0686 4.43139 20.6805 5.18404 21.064C5.66938 21.3113 6.18608 21.4099 6.74818 21.4558C7.28937 21.5 7.95372 21.5 8.75868 21.5H15.2413C16.0463 21.5 16.7106 21.5 17.2518 21.4558C17.8139 21.4099 18.3306 21.3113 18.816 21.064C19.5686 20.6805 20.1805 20.0686 20.564 19.316C20.8113 18.8306 20.9099 18.3139 20.9558 17.7518C21 17.2106 21 16.5463 21 15.7413V9.25868C21 8.45372 21 7.78937 20.9558 7.24818C20.9099 6.68608 20.8113 6.16938 20.564 5.68404C20.1805 4.93139 19.5686 4.31947 18.816 3.93598C18.3306 3.68868 17.8139 3.59012 17.2518 3.5442C16.7106 3.49998 16.0463 3.49999 15.2413 3.5ZM11.5257 7.34186L10.3547 10.8547L6.84192 12.0256V12.9743L10.3547 14.1453L11.5257 17.6581H12.4744L13.6453 14.1453L17.1581 12.9743V12.0256L13.6453 10.8547L12.4744 7.34186H11.5257Z"
      fill="#5244F3"
    />
  </svg>