<svg width="16" height="16" viewBox="0 0 16 16" fill="none" xmlns="http://www.w3.org/2000/svg">
<path fill-rule="evenodd" clip-rule="evenodd" d="M1.81516 5.25846L7.72959 7.94144C7.90225 8.0199 8.0975 8.0199 8.27015 7.94144L14.1846 5.25846C14.6048 5.06777 14.6048 4.43276 14.1846 4.24208L8.27041 1.55884C8.09876 1.48039 7.90149 1.48039 7.72985 1.55884L1.81516 4.24183C1.39495 4.43251 1.39495 5.06777 1.81516 5.25846ZM14.1848 7.49991L12.7099 6.83138L8.60581 8.69173C8.41386 8.77881 8.20998 8.82299 8 8.82299C7.79002 8.82299 7.58639 8.77881 7.39419 8.69173L3.29034 6.83138L1.81516 7.49991C1.39495 7.69033 1.39495 8.32509 1.81516 8.51552L7.72959 11.1965C7.90225 11.2747 8.0975 11.2747 8.27015 11.1965L14.1848 8.51552C14.6051 8.32509 14.6051 7.69033 14.1848 7.49991ZM14.1848 10.7448L12.7155 10.0788L8.60581 11.9417C8.41386 12.0288 8.20998 12.0729 8 12.0729C7.79002 12.0729 7.58639 12.0288 7.39419 11.9417L3.28475 10.0788L1.81516 10.7448C1.39495 10.9352 1.39495 11.57 1.81516 11.7604L7.72959 14.4413C7.90225 14.5196 8.0975 14.5196 8.27015 14.4413L14.1848 11.7604C14.6051 11.57 14.6051 10.9352 14.1848 10.7448Z" fill="#9896A3"/>
</svg>
