<svg
    width="20"
    height="20"
    viewBox="0 0 20 20"
    fill="none"
    xmlns="http://www.w3.org/2000/svg"
  >
    <path
      d="M13.2853 7.36879C13.4192 7.50274 13.4944 7.68439 13.4944 7.8738C13.4944 8.0632 13.4192 8.24485 13.2853 8.3788L6.21387 15.4502C6.07992 15.5841 5.89827 15.6594 5.70887 15.6594C5.51946 15.6594 5.33781 15.5841 5.20387 15.4502L4.19387 14.4402C4.12745 14.3739 4.07477 14.2951 4.03882 14.2084C4.00288 14.1217 3.98438 14.0287 3.98438 13.9349C3.98438 13.841 4.00288 13.7481 4.03882 13.6613C4.07477 13.5746 4.12745 13.4958 4.19387 13.4295L11.2653 6.35808C11.3992 6.22417 11.5809 6.14895 11.7703 6.14895C11.9597 6.14895 12.1413 6.22417 12.2753 6.35808L13.2853 7.36879ZM9.10815 4.20237L8.41958 5.09808L9.07458 6.0238L8.86958 6.2288L7.98387 5.54665L7.08815 6.22237L6.84672 5.98094L7.53244 5.09094L6.84958 4.20879L7.05458 4.00379L7.97172 4.65951L8.86744 3.96094L9.10815 4.20237ZM15.6746 10.7681L14.9853 11.6638L15.6403 12.5895L15.4353 12.7945L14.5496 12.1131L13.6539 12.7881L13.4132 12.5474L14.0989 11.6567L13.4153 10.7745L13.6203 10.5695L14.5382 11.2252L15.4332 10.5267L15.6746 10.7681ZM12.7803 7.8738L11.7703 6.8638L10.2553 8.3788L11.2653 9.3888L12.7803 7.87451V7.8738ZM15.1696 4.20237L14.4803 5.09808L15.1353 6.0238L14.9303 6.2288L14.0446 5.54665L13.1489 6.22237L12.9082 5.98094L13.5939 5.09094L12.9103 4.20879L13.1153 4.00379L14.0332 4.65951L14.9282 3.96094L15.1696 4.20237Z"
      fill="#212025"
    />
  </svg>