<svg width="22" height="22" viewBox="0 0 22 22" fill="none" xmlns="http://www.w3.org/2000/svg">
<path opacity="0.4" d="M15.476 4.68731H12.7782C12.1061 4.69175 11.468 4.39279 11.0421 3.87391L10.1537 2.64569C9.73495 2.12226 9.09689 1.8219 8.42581 1.83229H6.51859C3.09537 1.83229 1.83203 3.84138 1.83203 7.25763V10.9504C1.82778 11.3566 20.1614 11.356 20.1625 10.9504V9.87676C20.1788 6.46051 18.9481 4.68731 15.476 4.68731Z" fill="#5244F3"/>
<path d="M15.4678 4.68613C16.6639 4.59363 17.851 4.95369 18.7933 5.69474C18.9018 5.78676 19.0026 5.8874 19.0948 5.9957C19.3881 6.3386 19.6147 6.73306 19.7632 7.15885C20.0552 8.03398 20.1904 8.95363 20.1625 9.87559V14.6909C20.1614 15.0965 20.1314 15.5015 20.0729 15.9028C19.9614 16.6112 19.7122 17.2909 19.3393 17.9038C19.1679 18.1998 18.9598 18.4731 18.7199 18.7172C17.6338 19.714 16.1916 20.2328 14.718 20.1569H7.26843C5.79248 20.2323 4.34793 19.7136 3.25837 18.7172C3.02132 18.4726 2.81595 18.1994 2.64708 17.9038C2.27639 17.2914 2.0325 16.611 1.92984 15.9028C1.86456 15.5021 1.83203 15.0968 1.83203 14.6909V9.87559C1.83203 9.47343 1.85364 9.07156 1.89724 8.67176C1.92169 8.48468 1.97874 8.30574 1.97874 8.12679C2.06148 7.64433 2.21241 7.17602 2.42702 6.73589C3.06276 5.37752 4.36684 4.68613 6.50228 4.68613H15.4678ZM15.6879 12.7306H6.38817C5.96954 12.7306 5.63017 13.0693 5.63017 13.4871C5.63017 13.9048 5.96954 14.2435 6.38817 14.2435H15.6309C15.8333 14.2523 16.0308 14.1798 16.1794 14.0423C16.3279 13.9048 16.4151 13.7136 16.4215 13.5115C16.4329 13.3338 16.3744 13.1587 16.2584 13.0234C16.125 12.8416 15.9137 12.7332 15.6879 12.7306Z" fill="currentColor"/>
</svg>
