<svg width="22" height="22" viewBox="0 0 22 22" fill="none" xmlns="http://www.w3.org/2000/svg">
<path d="M4.51163 12.2812C3.12449 12.2812 2 13.4325 2 14.8527V17.4241C2 18.8443 3.12449 19.9955 4.51163 19.9955H17.4884C18.8755 19.9955 20 18.8443 20 17.4241V14.8527C20 13.4325 18.8755 12.2812 17.4884 12.2812H4.51163ZM5.76744 14.8527H7.02326C7.71682 14.8527 8.27907 15.4283 8.27907 16.1384C8.27907 16.8485 7.71682 17.4241 7.02326 17.4241H5.76744C5.07387 17.4241 4.51163 16.8485 4.51163 16.1384C4.51163 15.4283 5.07387 14.8527 5.76744 14.8527Z" fill="currentColor"/>
<path d="M4.51163 2C3.12449 2 2 3.15127 2 4.57143V7.14286C2 8.56302 3.12449 9.71429 4.51163 9.71429H17.4884C18.8755 9.71429 20 8.56302 20 7.14286V4.57143C20 3.15127 18.8755 2 17.4884 2H4.51163ZM4.51163 5.85714C4.51163 5.14706 5.07387 4.57143 5.76744 4.57143H7.02326C7.71682 4.57143 8.27907 5.14706 8.27907 5.85714C8.27907 6.56722 7.71682 7.14286 7.02326 7.14286H5.76744C5.07387 7.14286 4.51163 6.56722 4.51163 5.85714Z" fill="#9896A3"/>
</svg>
