<svg width="20" height="20" viewBox="0 0 20 20" fill="none" xmlns="http://www.w3.org/2000/svg">
<g clip-path="url(#clip0_779_12852)">
<path d="M3.54167 4.89453C3.54167 2.99605 5.08069 1.45703 6.97917 1.45703H9.6887C10.0907 1.45703 10.4167 1.78295 10.4167 2.185V4.89453C10.4167 6.79301 8.87765 8.33203 6.97917 8.33203C5.08069 8.33203 3.54167 6.79301 3.54167 4.89453ZM14.4764 3.1237C12.9277 3.1237 11.6722 4.37921 11.6722 5.92797C11.6722 7.47673 12.9277 8.73225 14.4764 8.73225C16.0252 8.73225 17.2807 7.47674 17.2807 5.92798V3.71757C17.2807 3.38958 17.0148 3.1237 16.6868 3.1237H14.4764ZM18.2182 16.0404H15V13.9163C15 11.9976 13.8626 10.3445 12.2252 9.59461C12.6409 9.47578 13.0799 9.41215 13.5337 9.41215H15.2489C17.8728 9.41215 19.9999 11.5392 19.9999 14.1631V14.2588C19.9999 15.2428 19.2022 16.0404 18.2182 16.0404ZM5.82375 9.16537C2.60738 9.16537 0 11.7727 0 14.9891V15.1065C0 16.3126 0.977769 17.2904 2.18391 17.2904H11.5661C12.7722 17.2904 13.75 16.3126 13.75 15.1065V14.9891C13.75 11.7727 11.1426 9.16537 7.92625 9.16537H5.82375Z" fill="#D6D5DA"/>
<path d="M3.54167 4.89453C3.54167 2.99605 5.08069 1.45703 6.97917 1.45703H9.6887C10.0907 1.45703 10.4167 1.78295 10.4167 2.185V4.89453C10.4167 6.79301 8.87765 8.33203 6.97917 8.33203C5.08069 8.33203 3.54167 6.79301 3.54167 4.89453ZM5.82375 9.16537C2.60738 9.16537 0 11.7727 0 14.9891V15.1065C0 16.3126 0.977769 17.2904 2.18391 17.2904H11.5661C12.7722 17.2904 13.75 16.3126 13.75 15.1065V14.9891C13.75 11.7727 11.1426 9.16537 7.92625 9.16537H5.82375Z" fill="currentColor"/>
</g>
<defs>
<clipPath id="clip0_779_12852">
<rect width="20" height="20" fill="white"/>
</clipPath>
</defs>
</svg>
